<svg id="svg" version="1.1" xmlns="http://www.w3.org/2000/svg" xmlns:xlink="http://www.w3.org/1999/xlink" width="400" height="400" viewBox="0, 0, 400,400"><g id="svgg"><path id="path0" d="M177.200 29.400 C 176.819 29.859,175.775 30.000,172.751 30.000 C 169.506 30.000,168.800 30.107,168.800 30.600 C 168.800 31.076,168.226 31.200,166.033 31.200 C 162.912 31.200,162.000 31.436,162.000 32.243 C 162.000 32.662,161.356 32.800,159.400 32.800 C 157.356 32.800,156.800 32.928,156.800 33.400 C 156.800 33.872,156.244 34.000,154.200 34.000 C 152.156 34.000,151.600 34.128,151.600 34.600 C 151.600 35.055,151.107 35.200,149.563 35.200 C 147.862 35.200,147.491 35.332,147.316 36.000 C 147.147 36.648,146.770 36.800,145.341 36.800 C 144.140 36.800,143.501 36.992,143.345 37.400 C 143.190 37.804,142.555 38.000,141.400 38.000 C 140.245 38.000,139.610 38.196,139.455 38.600 C 139.321 38.951,138.721 39.200,138.013 39.200 C 137.067 39.200,136.800 39.376,136.800 40.000 C 136.800 40.693,136.533 40.800,134.800 40.800 C 133.289 40.800,132.800 40.947,132.800 41.400 C 132.800 41.819,132.378 42.000,131.400 42.000 C 130.422 42.000,130.000 42.181,130.000 42.600 C 130.000 43.004,129.596 43.200,128.763 43.200 C 127.862 43.200,127.468 43.417,127.316 44.000 C 127.168 44.567,126.770 44.800,125.953 44.800 C 125.195 44.800,124.800 45.005,124.800 45.400 C 124.800 45.819,124.378 46.000,123.400 46.000 C 122.422 46.000,122.000 46.181,122.000 46.600 C 122.000 47.004,121.596 47.200,120.763 47.200 C 119.862 47.200,119.468 47.417,119.316 48.000 C 119.168 48.567,118.770 48.800,117.953 48.800 C 117.195 48.800,116.800 49.005,116.800 49.400 C 116.800 49.819,116.378 50.000,115.400 50.000 C 114.422 50.000,114.000 50.181,114.000 50.600 C 114.000 50.934,113.644 51.200,113.196 51.200 C 112.754 51.200,112.084 51.560,111.707 52.000 C 111.330 52.440,110.792 52.800,110.511 52.800 C 110.230 52.800,110.000 53.070,110.000 53.400 C 110.000 53.801,109.599 54.000,108.787 54.000 C 108.079 54.000,107.479 54.249,107.345 54.600 C 107.218 54.930,106.864 55.200,106.557 55.200 C 106.251 55.200,106.000 55.560,106.000 56.000 C 106.000 56.648,105.733 56.800,104.600 56.800 C 103.622 56.800,103.200 56.981,103.200 57.400 C 103.200 57.730,102.930 58.000,102.600 58.000 C 102.270 58.000,102.000 58.270,102.000 58.600 C 102.000 59.004,101.596 59.200,100.763 59.200 C 99.862 59.200,99.468 59.417,99.316 60.000 C 99.201 60.440,98.858 60.800,98.553 60.800 C 98.249 60.800,98.000 61.050,98.000 61.357 C 98.000 61.663,97.550 62.026,97.000 62.164 C 96.450 62.302,96.000 62.592,96.000 62.808 C 96.000 63.023,95.623 63.200,95.163 63.200 C 94.662 63.200,94.241 63.521,94.116 64.000 C 94.001 64.440,93.658 64.800,93.353 64.800 C 93.049 64.800,92.800 65.070,92.800 65.400 C 92.800 65.733,92.444 66.000,92.000 66.000 C 91.556 66.000,91.200 66.267,91.200 66.600 C 91.200 66.930,90.930 67.200,90.600 67.200 C 90.270 67.200,89.640 67.560,89.200 68.000 C 88.760 68.440,88.214 68.800,87.987 68.800 C 87.761 68.800,87.471 69.070,87.345 69.400 C 87.218 69.730,86.864 70.000,86.557 70.000 C 86.251 70.000,86.000 70.270,86.000 70.600 C 86.000 70.930,85.730 71.200,85.400 71.200 C 85.067 71.200,84.800 71.556,84.800 72.000 C 84.800 72.533,84.533 72.800,84.000 72.800 C 83.556 72.800,83.200 73.067,83.200 73.400 C 83.200 73.730,82.930 74.000,82.600 74.000 C 82.270 74.000,82.000 74.270,82.000 74.600 C 82.000 74.930,81.730 75.200,81.400 75.200 C 81.067 75.200,80.800 75.556,80.800 76.000 C 80.800 76.533,80.533 76.800,80.000 76.800 C 79.556 76.800,79.200 77.067,79.200 77.400 C 79.200 77.730,78.930 78.000,78.600 78.000 C 78.270 78.000,78.000 78.270,78.000 78.600 C 78.000 78.930,77.730 79.200,77.400 79.200 C 77.067 79.200,76.800 79.556,76.800 80.000 C 76.800 80.533,76.533 80.800,76.000 80.800 C 75.556 80.800,75.200 81.067,75.200 81.400 C 75.200 81.730,74.930 82.000,74.600 82.000 C 74.270 82.000,74.000 82.270,74.000 82.600 C 74.000 82.930,73.730 83.200,73.400 83.200 C 73.067 83.200,72.800 83.556,72.800 84.000 C 72.800 84.533,72.533 84.800,72.000 84.800 C 71.556 84.800,71.200 85.067,71.200 85.400 C 71.200 85.730,70.930 86.000,70.600 86.000 C 70.270 86.000,70.000 86.251,70.000 86.557 C 70.000 86.864,69.730 87.218,69.400 87.345 C 69.049 87.479,68.800 88.079,68.800 88.787 C 68.800 89.733,68.624 90.000,68.000 90.000 C 67.556 90.000,67.200 90.267,67.200 90.600 C 67.200 90.930,66.930 91.200,66.600 91.200 C 66.267 91.200,66.000 91.556,66.000 92.000 C 66.000 92.444,65.733 92.800,65.400 92.800 C 65.070 92.800,64.800 93.049,64.800 93.353 C 64.800 93.658,64.440 94.001,64.000 94.116 C 63.417 94.268,63.200 94.662,63.200 95.563 C 63.200 96.396,63.004 96.800,62.600 96.800 C 62.270 96.800,62.000 97.070,62.000 97.400 C 62.000 97.730,61.730 98.000,61.400 98.000 C 61.070 98.000,60.800 98.249,60.800 98.553 C 60.800 98.858,60.440 99.201,60.000 99.316 C 59.417 99.468,59.200 99.862,59.200 100.763 C 59.200 101.596,59.004 102.000,58.600 102.000 C 58.270 102.000,58.000 102.251,58.000 102.557 C 58.000 102.864,57.730 103.218,57.400 103.345 C 57.049 103.479,56.800 104.079,56.800 104.787 C 56.800 105.733,56.624 106.000,56.000 106.000 C 55.560 106.000,55.200 106.251,55.200 106.557 C 55.200 106.864,54.930 107.218,54.600 107.345 C 54.249 107.479,54.000 108.079,54.000 108.787 C 54.000 109.599,53.801 110.000,53.400 110.000 C 53.067 110.000,52.800 110.356,52.800 110.800 C 52.800 111.240,52.544 111.600,52.232 111.600 C 51.919 111.600,51.545 112.140,51.400 112.800 C 51.255 113.460,50.881 114.000,50.568 114.000 C 50.185 114.000,50.000 114.457,50.000 115.400 C 50.000 116.378,49.819 116.800,49.400 116.800 C 49.005 116.800,48.800 117.195,48.800 117.953 C 48.800 118.770,48.567 119.168,48.000 119.316 C 47.417 119.468,47.200 119.862,47.200 120.763 C 47.200 121.596,47.004 122.000,46.600 122.000 C 46.181 122.000,46.000 122.422,46.000 123.400 C 46.000 124.378,45.819 124.800,45.400 124.800 C 45.005 124.800,44.800 125.195,44.800 125.953 C 44.800 126.770,44.567 127.168,44.000 127.316 C 43.417 127.468,43.200 127.862,43.200 128.763 C 43.200 129.596,43.004 130.000,42.600 130.000 C 42.181 130.000,42.000 130.422,42.000 131.400 C 42.000 132.378,41.819 132.800,41.400 132.800 C 40.947 132.800,40.800 133.289,40.800 134.800 C 40.800 136.533,40.693 136.800,40.000 136.800 C 39.352 136.800,39.200 137.067,39.200 138.200 C 39.200 139.178,39.019 139.600,38.600 139.600 C 38.158 139.600,38.000 140.062,38.000 141.357 C 38.000 142.550,37.807 143.188,37.400 143.345 C 36.996 143.500,36.800 144.135,36.800 145.291 C 36.800 146.574,36.598 147.134,36.000 147.507 C 35.398 147.883,35.200 148.440,35.200 149.761 C 35.200 150.951,35.007 151.588,34.600 151.745 C 34.158 151.914,34.000 152.612,34.000 154.387 C 34.000 156.265,33.867 156.800,33.400 156.800 C 32.928 156.800,32.800 157.356,32.800 159.400 C 32.800 161.347,32.661 162.000,32.247 162.000 C 31.519 162.000,31.212 163.253,31.205 166.257 C 31.201 168.069,31.042 168.775,30.600 168.945 C 30.125 169.127,30.000 169.962,30.000 172.938 C 30.000 175.796,29.856 176.822,29.400 177.200 C 28.494 177.952,28.494 222.048,29.400 222.800 C 29.856 223.178,30.000 224.204,30.000 227.062 C 30.000 230.038,30.125 230.873,30.600 231.055 C 31.042 231.225,31.201 231.931,31.205 233.743 C 31.212 236.747,31.519 238.000,32.247 238.000 C 32.661 238.000,32.800 238.653,32.800 240.600 C 32.800 242.644,32.928 243.200,33.400 243.200 C 33.867 243.200,34.000 243.735,34.000 245.613 C 34.000 247.388,34.158 248.086,34.600 248.255 C 35.007 248.412,35.200 249.049,35.200 250.239 C 35.200 251.560,35.398 252.117,36.000 252.493 C 36.598 252.866,36.800 253.426,36.800 254.709 C 36.800 255.865,36.996 256.500,37.400 256.655 C 37.807 256.812,38.000 257.450,38.000 258.643 C 38.000 259.938,38.158 260.400,38.600 260.400 C 39.019 260.400,39.200 260.822,39.200 261.800 C 39.200 262.933,39.352 263.200,40.000 263.200 C 40.693 263.200,40.800 263.467,40.800 265.200 C 40.800 266.711,40.947 267.200,41.400 267.200 C 41.819 267.200,42.000 267.622,42.000 268.600 C 42.000 269.578,42.181 270.000,42.600 270.000 C 43.004 270.000,43.200 270.404,43.200 271.237 C 43.200 272.138,43.417 272.532,44.000 272.684 C 44.567 272.832,44.800 273.230,44.800 274.047 C 44.800 274.805,45.005 275.200,45.400 275.200 C 45.819 275.200,46.000 275.622,46.000 276.600 C 46.000 277.578,46.181 278.000,46.600 278.000 C 47.004 278.000,47.200 278.404,47.200 279.237 C 47.200 280.138,47.417 280.532,48.000 280.684 C 48.567 280.832,48.800 281.230,48.800 282.047 C 48.800 282.805,49.005 283.200,49.400 283.200 C 49.819 283.200,50.000 283.622,50.000 284.600 C 50.000 285.543,50.185 286.000,50.568 286.000 C 50.881 286.000,51.255 286.540,51.400 287.200 C 51.545 287.860,51.919 288.400,52.232 288.400 C 52.544 288.400,52.800 288.760,52.800 289.200 C 52.800 289.644,53.067 290.000,53.400 290.000 C 53.801 290.000,54.000 290.401,54.000 291.213 C 54.000 291.921,54.249 292.521,54.600 292.655 C 54.930 292.782,55.200 293.136,55.200 293.443 C 55.200 293.749,55.560 294.000,56.000 294.000 C 56.624 294.000,56.800 294.267,56.800 295.213 C 56.800 295.921,57.049 296.521,57.400 296.655 C 57.730 296.782,58.000 297.136,58.000 297.443 C 58.000 297.749,58.270 298.000,58.600 298.000 C 59.004 298.000,59.200 298.404,59.200 299.237 C 59.200 300.138,59.417 300.532,60.000 300.684 C 60.440 300.799,60.800 301.142,60.800 301.447 C 60.800 301.751,61.070 302.000,61.400 302.000 C 61.730 302.000,62.000 302.270,62.000 302.600 C 62.000 302.930,62.270 303.200,62.600 303.200 C 63.004 303.200,63.200 303.604,63.200 304.437 C 63.200 305.338,63.417 305.732,64.000 305.884 C 64.440 305.999,64.800 306.342,64.800 306.647 C 64.800 306.951,65.070 307.200,65.400 307.200 C 65.733 307.200,66.000 307.556,66.000 308.000 C 66.000 308.444,66.267 308.800,66.600 308.800 C 66.930 308.800,67.200 309.070,67.200 309.400 C 67.200 309.733,67.556 310.000,68.000 310.000 C 68.624 310.000,68.800 310.267,68.800 311.213 C 68.800 311.921,69.049 312.521,69.400 312.655 C 69.730 312.782,70.000 313.136,70.000 313.443 C 70.000 313.749,70.270 314.000,70.600 314.000 C 70.930 314.000,71.200 314.270,71.200 314.600 C 71.200 314.933,71.556 315.200,72.000 315.200 C 72.533 315.200,72.800 315.467,72.800 316.000 C 72.800 316.444,73.067 316.800,73.400 316.800 C 73.730 316.800,74.000 317.070,74.000 317.400 C 74.000 317.730,74.270 318.000,74.600 318.000 C 74.930 318.000,75.200 318.270,75.200 318.600 C 75.200 318.933,75.556 319.200,76.000 319.200 C 76.533 319.200,76.800 319.467,76.800 320.000 C 76.800 320.444,77.067 320.800,77.400 320.800 C 77.730 320.800,78.000 321.070,78.000 321.400 C 78.000 321.730,78.270 322.000,78.600 322.000 C 78.930 322.000,79.200 322.270,79.200 322.600 C 79.200 322.933,79.556 323.200,80.000 323.200 C 80.533 323.200,80.800 323.467,80.800 324.000 C 80.800 324.444,81.067 324.800,81.400 324.800 C 81.730 324.800,82.000 325.070,82.000 325.400 C 82.000 325.730,82.270 326.000,82.600 326.000 C 82.930 326.000,83.200 326.270,83.200 326.600 C 83.200 326.933,83.556 327.200,84.000 327.200 C 84.533 327.200,84.800 327.467,84.800 328.000 C 84.800 328.444,85.067 328.800,85.400 328.800 C 85.730 328.800,86.000 329.070,86.000 329.400 C 86.000 329.730,86.270 330.000,86.600 330.000 C 86.930 330.000,87.200 330.186,87.200 330.413 C 87.200 330.639,87.501 330.941,87.869 331.082 C 88.238 331.223,88.868 331.668,89.269 332.069 C 89.671 332.471,90.270 332.800,90.600 332.800 C 90.930 332.800,91.200 333.070,91.200 333.400 C 91.200 333.733,91.556 334.000,92.000 334.000 C 92.444 334.000,92.800 334.267,92.800 334.600 C 92.800 334.930,93.049 335.200,93.353 335.200 C 93.658 335.200,94.001 335.560,94.116 336.000 C 94.241 336.479,94.662 336.800,95.163 336.800 C 95.623 336.800,96.000 336.977,96.000 337.192 C 96.000 337.408,96.450 337.698,97.000 337.836 C 97.550 337.974,98.000 338.337,98.000 338.643 C 98.000 338.950,98.249 339.200,98.553 339.200 C 98.858 339.200,99.201 339.560,99.316 340.000 C 99.468 340.583,99.862 340.800,100.763 340.800 C 101.596 340.800,102.000 340.996,102.000 341.400 C 102.000 341.730,102.270 342.000,102.600 342.000 C 102.930 342.000,103.200 342.270,103.200 342.600 C 103.200 343.019,103.622 343.200,104.600 343.200 C 105.733 343.200,106.000 343.352,106.000 344.000 C 106.000 344.440,106.251 344.800,106.557 344.800 C 106.864 344.800,107.218 345.070,107.345 345.400 C 107.479 345.751,108.079 346.000,108.787 346.000 C 109.599 346.000,110.000 346.199,110.000 346.600 C 110.000 346.930,110.230 347.200,110.511 347.200 C 110.792 347.200,111.330 347.560,111.707 348.000 C 112.084 348.440,112.754 348.800,113.196 348.800 C 113.644 348.800,114.000 349.066,114.000 349.400 C 114.000 349.819,114.422 350.000,115.400 350.000 C 116.378 350.000,116.800 350.181,116.800 350.600 C 116.800 350.995,117.195 351.200,117.953 351.200 C 118.770 351.200,119.168 351.433,119.316 352.000 C 119.468 352.583,119.862 352.800,120.763 352.800 C 121.596 352.800,122.000 352.996,122.000 353.400 C 122.000 353.819,122.422 354.000,123.400 354.000 C 124.378 354.000,124.800 354.181,124.800 354.600 C 124.800 354.995,125.195 355.200,125.953 355.200 C 126.770 355.200,127.168 355.433,127.316 356.000 C 127.468 356.583,127.862 356.800,128.763 356.800 C 129.596 356.800,130.000 356.996,130.000 357.400 C 130.000 357.819,130.422 358.000,131.400 358.000 C 132.378 358.000,132.800 358.181,132.800 358.600 C 132.800 359.053,133.289 359.200,134.800 359.200 C 136.533 359.200,136.800 359.307,136.800 360.000 C 136.800 360.624,137.067 360.800,138.013 360.800 C 138.721 360.800,139.321 361.049,139.455 361.400 C 139.610 361.804,140.245 362.000,141.400 362.000 C 142.555 362.000,143.190 362.196,143.345 362.600 C 143.501 363.008,144.140 363.200,145.341 363.200 C 146.770 363.200,147.147 363.352,147.316 364.000 C 147.491 364.668,147.862 364.800,149.563 364.800 C 151.107 364.800,151.600 364.945,151.600 365.400 C 151.600 365.872,152.156 366.000,154.200 366.000 C 156.244 366.000,156.800 366.128,156.800 366.600 C 156.800 367.072,157.356 367.200,159.400 367.200 C 161.356 367.200,162.000 367.338,162.000 367.757 C 162.000 368.564,162.912 368.800,166.033 368.800 C 168.226 368.800,168.800 368.924,168.800 369.400 C 168.800 369.893,169.506 370.000,172.751 370.000 C 175.775 370.000,176.819 370.141,177.200 370.600 C 177.952 371.506,222.048 371.506,222.800 370.600 C 223.181 370.141,224.225 370.000,227.249 370.000 C 230.494 370.000,231.200 369.893,231.200 369.400 C 231.200 368.924,231.774 368.800,233.967 368.800 C 237.088 368.800,238.000 368.564,238.000 367.757 C 238.000 367.338,238.644 367.200,240.600 367.200 C 242.644 367.200,243.200 367.072,243.200 366.600 C 243.200 366.128,243.756 366.000,245.800 366.000 C 247.844 366.000,248.400 365.872,248.400 365.400 C 248.400 364.945,248.893 364.800,250.437 364.800 C 252.138 364.800,252.509 364.668,252.684 364.000 C 252.853 363.352,253.230 363.200,254.659 363.200 C 255.860 363.200,256.499 363.008,256.655 362.600 C 256.810 362.196,257.445 362.000,258.600 362.000 C 259.755 362.000,260.390 361.804,260.545 361.400 C 260.679 361.049,261.279 360.800,261.987 360.800 C 262.933 360.800,263.200 360.624,263.200 360.000 C 263.200 359.307,263.467 359.200,265.200 359.200 C 266.711 359.200,267.200 359.053,267.200 358.600 C 267.200 358.181,267.622 358.000,268.600 358.000 C 269.578 358.000,270.000 357.819,270.000 357.400 C 270.000 356.996,270.404 356.800,271.237 356.800 C 272.138 356.800,272.532 356.583,272.684 356.000 C 272.832 355.433,273.230 355.200,274.047 355.200 C 274.805 355.200,275.200 354.995,275.200 354.600 C 275.200 354.181,275.622 354.000,276.600 354.000 C 277.578 354.000,278.000 353.819,278.000 353.400 C 278.000 352.996,278.404 352.800,279.237 352.800 C 280.138 352.800,280.532 352.583,280.684 352.000 C 280.832 351.433,281.230 351.200,282.047 351.200 C 282.805 351.200,283.200 350.995,283.200 350.600 C 283.200 350.181,283.622 350.000,284.600 350.000 C 285.578 350.000,286.000 349.819,286.000 349.400 C 286.000 349.066,286.356 348.800,286.804 348.800 C 287.246 348.800,287.916 348.440,288.293 348.000 C 288.670 347.560,289.208 347.200,289.489 347.200 C 289.770 347.200,290.000 346.930,290.000 346.600 C 290.000 346.199,290.401 346.000,291.213 346.000 C 291.921 346.000,292.521 345.751,292.655 345.400 C 292.782 345.070,293.136 344.800,293.443 344.800 C 293.749 344.800,294.000 344.440,294.000 344.000 C 294.000 343.352,294.267 343.200,295.400 343.200 C 296.378 343.200,296.800 343.019,296.800 342.600 C 296.800 342.270,297.070 342.000,297.400 342.000 C 297.730 342.000,298.000 341.730,298.000 341.400 C 298.000 340.996,298.404 340.800,299.237 340.800 C 300.138 340.800,300.532 340.583,300.684 340.000 C 300.799 339.560,301.142 339.200,301.447 339.200 C 301.751 339.200,302.000 338.950,302.000 338.643 C 302.000 338.337,302.450 337.974,303.000 337.836 C 303.550 337.698,304.000 337.408,304.000 337.192 C 304.000 336.977,304.377 336.800,304.837 336.800 C 305.338 336.800,305.759 336.479,305.884 336.000 C 305.999 335.560,306.342 335.200,306.647 335.200 C 306.951 335.200,307.200 334.930,307.200 334.600 C 307.200 334.267,307.556 334.000,308.000 334.000 C 308.444 334.000,308.800 333.733,308.800 333.400 C 308.800 333.070,309.070 332.800,309.400 332.800 C 309.730 332.800,310.329 332.471,310.731 332.069 C 311.132 331.668,311.762 331.223,312.131 331.082 C 312.499 330.941,312.800 330.639,312.800 330.413 C 312.800 330.186,313.070 330.000,313.400 330.000 C 313.730 330.000,314.000 329.730,314.000 329.400 C 314.000 329.070,314.270 328.800,314.600 328.800 C 314.933 328.800,315.200 328.444,315.200 328.000 C 315.200 327.467,315.467 327.200,316.000 327.200 C 316.444 327.200,316.800 326.933,316.800 326.600 C 316.800 326.270,317.070 326.000,317.400 326.000 C 317.730 326.000,318.000 325.730,318.000 325.400 C 318.000 325.070,318.270 324.800,318.600 324.800 C 318.933 324.800,319.200 324.444,319.200 324.000 C 319.200 323.467,319.467 323.200,320.000 323.200 C 320.444 323.200,320.800 322.933,320.800 322.600 C 320.800 322.270,321.070 322.000,321.400 322.000 C 321.730 322.000,322.000 321.730,322.000 321.400 C 322.000 321.070,322.270 320.800,322.600 320.800 C 322.933 320.800,323.200 320.444,323.200 320.000 C 323.200 319.467,323.467 319.200,324.000 319.200 C 324.444 319.200,324.800 318.933,324.800 318.600 C 324.800 318.270,325.070 318.000,325.400 318.000 C 325.730 318.000,326.000 317.730,326.000 317.400 C 326.000 317.070,326.270 316.800,326.600 316.800 C 326.933 316.800,327.200 316.444,327.200 316.000 C 327.200 315.467,327.467 315.200,328.000 315.200 C 328.444 315.200,328.800 314.933,328.800 314.600 C 328.800 314.270,329.070 314.000,329.400 314.000 C 329.730 314.000,330.000 313.749,330.000 313.443 C 330.000 313.136,330.270 312.782,330.600 312.655 C 330.951 312.521,331.200 311.921,331.200 311.213 C 331.200 310.267,331.376 310.000,332.000 310.000 C 332.444 310.000,332.800 309.733,332.800 309.400 C 332.800 309.070,333.070 308.800,333.400 308.800 C 333.733 308.800,334.000 308.444,334.000 308.000 C 334.000 307.556,334.267 307.200,334.600 307.200 C 334.930 307.200,335.200 306.951,335.200 306.647 C 335.200 306.342,335.560 305.999,336.000 305.884 C 336.583 305.732,336.800 305.338,336.800 304.437 C 336.800 303.604,336.996 303.200,337.400 303.200 C 337.730 303.200,338.000 302.930,338.000 302.600 C 338.000 302.270,338.270 302.000,338.600 302.000 C 338.930 302.000,339.200 301.751,339.200 301.447 C 339.200 301.142,339.560 300.799,340.000 300.684 C 340.583 300.532,340.800 300.138,340.800 299.237 C 340.800 298.404,340.996 298.000,341.400 298.000 C 341.730 298.000,342.000 297.749,342.000 297.443 C 342.000 297.136,342.270 296.782,342.600 296.655 C 342.951 296.521,343.200 295.921,343.200 295.213 C 343.200 294.267,343.376 294.000,344.000 294.000 C 344.440 294.000,344.800 293.749,344.800 293.443 C 344.800 293.136,345.070 292.782,345.400 292.655 C 345.751 292.521,346.000 291.921,346.000 291.213 C 346.000 290.401,346.199 290.000,346.600 290.000 C 346.933 290.000,347.200 289.644,347.200 289.200 C 347.200 288.760,347.456 288.400,347.768 288.400 C 348.081 288.400,348.455 287.860,348.600 287.200 C 348.745 286.540,349.119 286.000,349.432 286.000 C 349.815 286.000,350.000 285.543,350.000 284.600 C 350.000 283.622,350.181 283.200,350.600 283.200 C 350.995 283.200,351.200 282.805,351.200 282.047 C 351.200 281.230,351.433 280.832,352.000 280.684 C 352.583 280.532,352.800 280.138,352.800 279.237 C 352.800 278.404,352.996 278.000,353.400 278.000 C 353.819 278.000,354.000 277.578,354.000 276.600 C 354.000 275.622,354.181 275.200,354.600 275.200 C 354.995 275.200,355.200 274.805,355.200 274.047 C 355.200 273.230,355.433 272.832,356.000 272.684 C 356.583 272.532,356.800 272.138,356.800 271.237 C 356.800 270.404,356.996 270.000,357.400 270.000 C 357.819 270.000,358.000 269.578,358.000 268.600 C 358.000 267.622,358.181 267.200,358.600 267.200 C 359.053 267.200,359.200 266.711,359.200 265.200 C 359.200 263.467,359.307 263.200,360.000 263.200 C 360.648 263.200,360.800 262.933,360.800 261.800 C 360.800 260.822,360.981 260.400,361.400 260.400 C 361.842 260.400,362.000 259.938,362.000 258.643 C 362.000 257.450,362.193 256.812,362.600 256.655 C 363.004 256.500,363.200 255.865,363.200 254.709 C 363.200 253.426,363.402 252.866,364.000 252.493 C 364.602 252.117,364.800 251.560,364.800 250.239 C 364.800 249.049,364.993 248.412,365.400 248.255 C 365.842 248.086,366.000 247.388,366.000 245.613 C 366.000 243.735,366.133 243.200,366.600 243.200 C 367.072 243.200,367.200 242.644,367.200 240.600 C 367.200 238.653,367.339 238.000,367.753 238.000 C 368.481 238.000,368.788 236.747,368.795 233.743 C 368.799 231.931,368.958 231.225,369.400 231.055 C 369.875 230.873,370.000 230.038,370.000 227.062 C 370.000 224.204,370.144 223.178,370.600 222.800 C 371.120 222.368,371.200 219.336,371.200 200.000 C 371.200 180.664,371.120 177.632,370.600 177.200 C 370.144 176.822,370.000 175.796,370.000 172.938 C 370.000 169.962,369.875 169.127,369.400 168.945 C 368.958 168.775,368.799 168.069,368.795 166.257 C 368.788 163.253,368.481 162.000,367.753 162.000 C 367.339 162.000,367.200 161.347,367.200 159.400 C 367.200 157.356,367.072 156.800,366.600 156.800 C 366.133 156.800,366.000 156.265,366.000 154.387 C 366.000 152.612,365.842 151.914,365.400 151.745 C 364.993 151.588,364.800 150.951,364.800 149.761 C 364.800 148.440,364.602 147.883,364.000 147.507 C 363.402 147.134,363.200 146.574,363.200 145.291 C 363.200 144.135,363.004 143.500,362.600 143.345 C 362.193 143.188,362.000 142.550,362.000 141.357 C 362.000 140.062,361.842 139.600,361.400 139.600 C 360.981 139.600,360.800 139.178,360.800 138.200 C 360.800 137.067,360.648 136.800,360.000 136.800 C 359.307 136.800,359.200 136.533,359.200 134.800 C 359.200 133.289,359.053 132.800,358.600 132.800 C 358.181 132.800,358.000 132.378,358.000 131.400 C 358.000 130.422,357.819 130.000,357.400 130.000 C 356.996 130.000,356.800 129.596,356.800 128.763 C 356.800 127.862,356.583 127.468,356.000 127.316 C 355.433 127.168,355.200 126.770,355.200 125.953 C 355.200 125.195,354.995 124.800,354.600 124.800 C 354.181 124.800,354.000 124.378,354.000 123.400 C 354.000 122.422,353.819 122.000,353.400 122.000 C 352.996 122.000,352.800 121.596,352.800 120.763 C 352.800 119.862,352.583 119.468,352.000 119.316 C 351.433 119.168,351.200 118.770,351.200 117.953 C 351.200 117.195,350.995 116.800,350.600 116.800 C 350.181 116.800,350.000 116.378,350.000 115.400 C 350.000 114.457,349.815 114.000,349.432 114.000 C 349.119 114.000,348.745 113.460,348.600 112.800 C 348.455 112.140,348.081 111.600,347.768 111.600 C 347.456 111.600,347.200 111.240,347.200 110.800 C 347.200 110.356,346.933 110.000,346.600 110.000 C 346.199 110.000,346.000 109.599,346.000 108.787 C 346.000 108.079,345.751 107.479,345.400 107.345 C 345.070 107.218,344.800 106.864,344.800 106.557 C 344.800 106.251,344.440 106.000,344.000 106.000 C 343.376 106.000,343.200 105.733,343.200 104.787 C 343.200 104.079,342.951 103.479,342.600 103.345 C 342.270 103.218,342.000 102.864,342.000 102.557 C 342.000 102.251,341.730 102.000,341.400 102.000 C 340.996 102.000,340.800 101.596,340.800 100.763 C 340.800 99.862,340.583 99.468,340.000 99.316 C 339.560 99.201,339.200 98.858,339.200 98.553 C 339.200 98.249,338.930 98.000,338.600 98.000 C 338.270 98.000,338.000 97.730,338.000 97.400 C 338.000 97.070,337.730 96.800,337.400 96.800 C 336.996 96.800,336.800 96.396,336.800 95.563 C 336.800 94.662,336.583 94.268,336.000 94.116 C 335.560 94.001,335.200 93.658,335.200 93.353 C 335.200 93.049,334.930 92.800,334.600 92.800 C 334.267 92.800,334.000 92.444,334.000 92.000 C 334.000 91.556,333.733 91.200,333.400 91.200 C 333.070 91.200,332.800 90.930,332.800 90.600 C 332.800 90.267,332.444 90.000,332.000 90.000 C 331.376 90.000,331.200 89.733,331.200 88.787 C 331.200 88.079,330.951 87.479,330.600 87.345 C 330.270 87.218,330.000 86.864,330.000 86.557 C 330.000 86.251,329.730 86.000,329.400 86.000 C 329.070 86.000,328.800 85.730,328.800 85.400 C 328.800 85.067,328.444 84.800,328.000 84.800 C 327.467 84.800,327.200 84.533,327.200 84.000 C 327.200 83.556,326.933 83.200,326.600 83.200 C 326.270 83.200,326.000 82.930,326.000 82.600 C 326.000 82.270,325.730 82.000,325.400 82.000 C 325.070 82.000,324.800 81.730,324.800 81.400 C 324.800 81.067,324.444 80.800,324.000 80.800 C 323.467 80.800,323.200 80.533,323.200 80.000 C 323.200 79.556,322.933 79.200,322.600 79.200 C 322.270 79.200,322.000 78.930,322.000 78.600 C 322.000 78.270,321.730 78.000,321.400 78.000 C 321.070 78.000,320.800 77.730,320.800 77.400 C 320.800 77.067,320.444 76.800,320.000 76.800 C 319.467 76.800,319.200 76.533,319.200 76.000 C 319.200 75.556,318.933 75.200,318.600 75.200 C 318.270 75.200,318.000 74.930,318.000 74.600 C 318.000 74.270,317.730 74.000,317.400 74.000 C 317.070 74.000,316.800 73.730,316.800 73.400 C 316.800 73.067,316.444 72.800,316.000 72.800 C 315.467 72.800,315.200 72.533,315.200 72.000 C 315.200 71.556,314.933 71.200,314.600 71.200 C 314.270 71.200,314.000 70.930,314.000 70.600 C 314.000 70.270,313.749 70.000,313.443 70.000 C 313.136 70.000,312.782 69.730,312.655 69.400 C 312.529 69.070,312.239 68.800,312.013 68.800 C 311.786 68.800,311.240 68.440,310.800 68.000 C 310.360 67.560,309.730 67.200,309.400 67.200 C 309.070 67.200,308.800 66.930,308.800 66.600 C 308.800 66.267,308.444 66.000,308.000 66.000 C 307.556 66.000,307.200 65.733,307.200 65.400 C 307.200 65.070,306.951 64.800,306.647 64.800 C 306.342 64.800,305.999 64.440,305.884 64.000 C 305.759 63.521,305.338 63.200,304.837 63.200 C 304.377 63.200,304.000 63.023,304.000 62.808 C 304.000 62.592,303.550 62.302,303.000 62.164 C 302.450 62.026,302.000 61.663,302.000 61.357 C 302.000 61.050,301.751 60.800,301.447 60.800 C 301.142 60.800,300.799 60.440,300.684 60.000 C 300.532 59.417,300.138 59.200,299.237 59.200 C 298.404 59.200,298.000 59.004,298.000 58.600 C 298.000 58.270,297.730 58.000,297.400 58.000 C 297.070 58.000,296.800 57.730,296.800 57.400 C 296.800 56.981,296.378 56.800,295.400 56.800 C 294.267 56.800,294.000 56.648,294.000 56.000 C 294.000 55.560,293.749 55.200,293.443 55.200 C 293.136 55.200,292.782 54.930,292.655 54.600 C 292.521 54.249,291.921 54.000,291.213 54.000 C 290.401 54.000,290.000 53.801,290.000 53.400 C 290.000 53.070,289.770 52.800,289.489 52.800 C 289.208 52.800,288.670 52.440,288.293 52.000 C 287.916 51.560,287.246 51.200,286.804 51.200 C 286.356 51.200,286.000 50.934,286.000 50.600 C 286.000 50.181,285.578 50.000,284.600 50.000 C 283.622 50.000,283.200 49.819,283.200 49.400 C 283.200 49.005,282.805 48.800,282.047 48.800 C 281.230 48.800,280.832 48.567,280.684 48.000 C 280.532 47.417,280.138 47.200,279.237 47.200 C 278.404 47.200,278.000 47.004,278.000 46.600 C 278.000 46.181,277.578 46.000,276.600 46.000 C 275.622 46.000,275.200 45.819,275.200 45.400 C 275.200 45.005,274.805 44.800,274.047 44.800 C 273.230 44.800,272.832 44.567,272.684 44.000 C 272.532 43.417,272.138 43.200,271.237 43.200 C 270.404 43.200,270.000 43.004,270.000 42.600 C 270.000 42.181,269.578 42.000,268.600 42.000 C 267.622 42.000,267.200 41.819,267.200 41.400 C 267.200 40.947,266.711 40.800,265.200 40.800 C 263.467 40.800,263.200 40.693,263.200 40.000 C 263.200 39.376,262.933 39.200,261.987 39.200 C 261.279 39.200,260.679 38.951,260.545 38.600 C 260.390 38.196,259.755 38.000,258.600 38.000 C 257.445 38.000,256.810 37.804,256.655 37.400 C 256.499 36.992,255.860 36.800,254.659 36.800 C 253.230 36.800,252.853 36.648,252.684 36.000 C 252.509 35.332,252.138 35.200,250.437 35.200 C 248.893 35.200,248.400 35.055,248.400 34.600 C 248.400 34.128,247.844 34.000,245.800 34.000 C 243.756 34.000,243.200 33.872,243.200 33.400 C 243.200 32.928,242.644 32.800,240.600 32.800 C 238.644 32.800,238.000 32.662,238.000 32.243 C 238.000 31.436,237.088 31.200,233.967 31.200 C 231.774 31.200,231.200 31.076,231.200 30.600 C 231.200 30.107,230.494 30.000,227.249 30.000 C 224.225 30.000,223.181 29.859,222.800 29.400 C 222.048 28.494,177.952 28.494,177.200 29.400 M217.400 59.749 C 276.141 67.370,323.677 109.808,337.310 166.800 C 340.227 178.993,341.200 187.318,341.200 200.084 C 341.200 208.136,340.104 222.460,339.402 223.597 C 339.311 223.744,339.041 225.109,338.802 226.632 C 337.888 232.451,332.553 250.727,331.222 252.600 C 331.066 252.820,330.610 253.900,330.209 255.000 C 319.366 284.757,284.757 319.366,255.000 330.209 C 253.900 330.610,252.820 331.066,252.600 331.222 C 250.727 332.553,232.451 337.888,226.632 338.802 C 225.109 339.041,223.744 339.311,223.597 339.402 C 222.460 340.104,208.136 341.200,200.084 341.200 C 110.961 341.200,44.261 260.081,61.416 172.557 C 73.139 112.752,123.009 66.629,183.384 59.755 C 186.473 59.404,189.087 59.033,189.193 58.931 C 189.691 58.456,212.542 59.119,217.400 59.749 " stroke="none" fill-rule="evenodd" class="border"></path><path id="path1" d="M189.193 58.931 C 189.087 59.033,186.473 59.404,183.384 59.755 C 123.009 66.629,73.139 112.752,61.416 172.557 C 48.238 239.791,85.282 307.263,148.800 331.715 C 165.798 338.258,181.704 341.200,200.084 341.200 C 208.136 341.200,222.460 340.104,223.597 339.402 C 223.744 339.311,225.109 339.041,226.632 338.802 C 232.451 337.888,250.727 332.553,252.600 331.222 C 252.820 331.066,253.900 330.610,255.000 330.209 C 284.757 319.366,319.366 284.757,330.209 255.000 C 330.610 253.900,331.066 252.820,331.222 252.600 C 332.553 250.727,337.888 232.451,338.802 226.632 C 339.041 225.109,339.311 223.744,339.402 223.597 C 340.104 222.460,341.200 208.136,341.200 200.084 C 341.200 128.536,288.676 68.996,217.400 59.749 C 212.542 59.119,189.691 58.456,189.193 58.931 " stroke="none" fill-rule="evenodd" class="center"></path></g></svg>