<svg id="svg" version="1.1" xmlns="http://www.w3.org/2000/svg" xmlns:xlink="http://www.w3.org/1999/xlink" width="400" height="266.6666666666667" viewBox="0, 0, 400,266.6666666666667"><g id="svgg"><path id="path0" d="M192.863 13.594 C 191.785 15.284,189.706 19.367,188.242 22.667 C 186.779 25.967,181.689 37.367,176.932 48.000 C 172.175 58.633,163.046 79.333,156.646 94.000 C 129.122 157.072,132.947 151.306,123.593 143.827 C 119.585 140.622,107.987 131.440,97.819 123.421 C 72.949 103.808,60.803 94.144,60.000 93.331 C 54.065 87.324,40.282 78.667,36.654 78.667 C 26.793 78.667,27.029 87.198,37.634 114.000 C 41.696 124.267,48.133 140.767,51.938 150.667 C 57.924 166.238,66.133 187.511,77.923 218.000 C 79.624 222.400,83.239 231.804,85.957 238.898 C 88.674 245.991,91.942 252.741,93.220 253.898 C 97.033 257.348,303.949 257.073,307.080 253.613 C 309.082 251.402,310.879 247.154,321.308 220.000 C 323.420 214.500,327.953 202.800,331.380 194.000 C 334.808 185.200,339.284 173.500,341.327 168.000 C 345.449 156.902,351.261 141.974,362.352 114.000 C 372.954 87.257,373.208 78.667,363.398 78.667 C 359.328 78.667,352.749 83.120,324.000 105.333 C 281.957 137.820,268.105 147.733,266.879 146.212 C 266.194 145.362,263.401 139.567,260.674 133.333 C 257.946 127.100,253.593 117.200,251.000 111.333 C 248.407 105.467,245.501 98.867,244.542 96.667 C 243.582 94.467,237.308 80.367,230.598 65.333 C 223.889 50.300,217.432 35.600,216.250 32.667 C 207.717 11.492,198.829 4.243,192.863 13.594 " stroke="none" fill-rule="evenodd" class="body"></path></g></svg>